<svg viewBox="0 0 300 300" xmlns="http://www.w3.org/2000/svg">
  <g transform="translate(10, 5)">
    <path fill="#FF6B35" d="M65.53,2.68v12.68L1.64,51.27v-10.3L65.53,2.68 M67.03,0.03L0.14,40.12v13.71l66.89-37.6V0.03L67.03,0.03z" />
    <path fill="#FF6B35" d="M65.53,32.53v12.74l-63.89,33V67.91L65.53,32.53 M67.03,29.98L0.14,67.02v13.71l66.89-34.55V29.98 L67.03,29.98z" />
    <path fill="#FF6B35" d="M65.53,62.08v12.85L1.64,102.88V92.41L65.53,62.08 M67.03,59.7L0.14,91.46v13.71l66.89-29.27V59.7 L67.03,59.7z" />
    <path fill="#FF6B35" d="M65.53,91.24v12.91L1.64,128.9v-10.53L65.53,91.24 M67.03,88.97L0.14,117.38v13.71l66.89-25.92V88.97 L67.03,88.97z" />
    <path fill="#FF6B35" d="M65.53,121.61v12.98L1.64,154.72v-10.6L65.53,121.61 M67.03,119.49L0.14,143.06v13.71l66.89-21.08V119.49 L67.03,119.49z" />
    <path fill="#FF6B35" d="M65.53,150.71v13.02L1.64,181.42v-10.64L65.53,150.71 M67.03,148.67L0.14,169.68v13.71l66.89-18.52V148.67 L67.03,148.67z" />
    <path fill="#FF6B35" d="M65.53,181.35v13.09L1.64,206.17v-10.7L65.53,181.35 M67.03,179.48L0.14,194.26v13.71l66.89-12.29V179.48 L67.03,179.48z" />
    <path fill="#FF6B35" d="M65.53,211.48v13.12l-63.89,7.66v-10.74L65.53,211.48 M67.03,209.73L0.14,220.24v13.71l66.89-8.01V209.73 L67.03,209.73z" />
    <path fill="#FF6B35" d="M65.53,241.07v13.14l-63.89,3.83v-10.76L65.53,241.07 M67.03,239.41l-66.89,6.5v13.71l66.89-4.01V239.41 L67.03,239.41z" />
    <path fill="#FF6B35" d="M65.53,270.23v13.57H2.34v-11.3L65.53,270.23 M67.03,268.68l-66.19,2.37v14.25h66.19V268.68L67.03,268.68z" />
    <polygon fill="#FF6B35" points="67.03,0.03 168.52,59.7 168.52,73.73 67.03,16.23" />
    <polygon fill="#FF6B35" points="67.03,29.98 168.52,82.44 168.52,96.72 67.03,46.18" />
    <polygon fill="#FF6B35" points="67.03,59.7 168.52,106.58 168.52,120.58 67.03,75.91" />
    <polygon fill="#FF6B35" points="67.03,88.97 67.03,105.17 168.52,143.57 168.52,129.92" />
    <polygon fill="#FF6B35" points="157.63,149.8 134.3,156.77 67.03,135.69 67.03,119.49" />
    <polygon fill="#FF6B35" points="67.03,148.67 113.9,161.55 113.9,177.28 67.03,164.87" />
    <polygon fill="#FF6B35" points="67.03,179.48 67.03,195.68 113.9,204.42 113.9,188.35" />
    <polygon fill="#FF6B35" points="67.03,209.73 67.03,225.93 113.9,230.87 113.9,215.83" />
    <polygon fill="#FF6B35" points="67.03,239.41 67.03,255.62 113.9,258.36 113.9,242.28" />
    <polygon fill="#FF6B35" points="67.03,268.68 67.03,285.3 113.9,285.3 113.9,269.94" />
    <g>
      <path fill="#FF6B35" d="M187.54,150.68v12.96l-64.62,16.65v-10.49L187.54,150.68 M189.04,148.67l-67.62,20v13.55l67.62-17.42 V148.67L189.04,148.67z" />
    </g>
    <g>
      <path fill="#FF6B35" d="M187.54,180.35v13.34l-64.62,12.6v-11.26L187.54,180.35 M189.04,178.47l-67.62,15.36v14.27l67.62-13.19 V178.47L189.04,178.47z" />
    </g>
    <g>
      <path fill="#FF6B35" d="M187.69,210.62v13.37l-64.77,8.36v-11.29L187.69,210.62 M189.19,208.86l-67.77,10.92v14.27l67.77-8.75 V208.86L189.19,208.86z" />
    </g>
    <g>
      <path fill="#FF6B35" d="M187.82,240.44v13.39l-64.9,4.57v-11.31L187.82,240.44 M189.32,238.78l-67.9,6.96v14.27l67.9-4.78V238.78 L189.32,238.78z" />
    </g>
    <g>
      <path fill="#FF6B35" d="M187.8,270.06v13.4l-64.88,0.33v-11.32L187.8,270.06 M189.3,268.5l-67.88,2.52v14.27l67.88-0.35V268.5 L189.3,268.5z" />
    </g>
    <polygon fill="#FF6B35" points="189.04,148.67 289.72,177.54 289.72,191.88 189.04,164.8" />
    <polygon fill="#FF6B35" points="189.04,178.47 289.72,200.65 289.72,214.8 189.04,194.92" />
    <polygon fill="#FF6B35" points="189.19,208.86 189.19,225.31 289.72,238.78 289.72,223.82" />
    <polygon fill="#FF6B35" points="289.72,248.28 289.72,262.03 189.32,255.23 189.32,238.78" />
    <polygon fill="#FF6B35" points="289.72,271.99 289.72,285.3 189.3,284.96 189.3,268.5" />
  </g>
</svg>
